<svg width="118" height="20" viewBox="0 0 118 20" fill="none" xmlns="http://www.w3.org/2000/svg">
<mask id="mask0_1156_1756" style="mask-type:luminance" maskUnits="userSpaceOnUse" x="0" y="0" width="118" height="20">
<path d="M117.933 0H0.0554199V20H117.933V0Z" fill="white"/>
</mask>
<g mask="url(#mask0_1156_1756)">
<mask id="mask1_1156_1756" style="mask-type:luminance" maskUnits="userSpaceOnUse" x="0" y="0" width="118" height="20">
<path d="M117.933 0H0.0554199V20H117.933V0Z" fill="white"/>
</mask>
<g mask="url(#mask1_1156_1756)">
<path d="M46.2786 2.18802C46.2786 1.20034 47.0798 0.394531 48.072 0.394531C49.0597 0.394531 49.8655 1.19573 49.8655 2.18802C49.831 3.1757 48.9976 3.94697 48.0076 3.91243C47.0682 3.8779 46.3154 3.12505 46.2786 2.18802Z" fill="#191825" fill-opacity="0.5"/>
</g>
<mask id="mask2_1156_1756" style="mask-type:luminance" maskUnits="userSpaceOnUse" x="0" y="0" width="118" height="20">
<path d="M117.933 0H0.0554199V20H117.933V0Z" fill="white"/>
</mask>
<g mask="url(#mask2_1156_1756)">
<path d="M74.5437 14.1379C74.5437 13.1433 75.3449 12.3398 76.3303 12.3398C77.3226 12.3398 78.1261 13.1433 78.1261 14.1379C78.1261 15.1302 77.3226 15.9337 76.3303 15.9337C75.3449 15.9337 74.5437 15.1279 74.5437 14.1379Z" fill="#191825" fill-opacity="0.5"/>
</g>
<mask id="mask3_1156_1756" style="mask-type:luminance" maskUnits="userSpaceOnUse" x="0" y="0" width="118" height="20">
<path d="M117.933 0H0.0554199V20H117.933V0Z" fill="white"/>
</mask>
<g mask="url(#mask3_1156_1756)">
<path d="M16.8853 13.3585C15.3451 13.3585 14.2699 12.1337 14.2699 10.3816C14.2699 8.63191 15.3428 7.40709 16.8853 7.40709C18.4348 7.40709 19.5214 8.63191 19.5214 10.3816C19.5191 12.1613 18.4601 13.3585 16.8853 13.3585ZM16.8853 4.79169C13.623 4.79169 11.2539 7.14233 11.2539 10.3816C11.2539 13.621 13.6253 15.9716 16.8853 15.9716C20.1638 15.9716 22.5397 13.621 22.5397 10.384C22.5397 7.14233 20.1592 4.79169 16.8853 4.79169ZM42.8114 10.6625C42.6986 10.4438 42.5536 10.2389 42.3855 10.0593L42.2865 9.95572L42.3901 9.85673C42.5397 9.69787 42.694 9.51138 42.839 9.29497L45.7192 5.01271H42.222L40.0579 8.36254C39.9358 8.54442 39.6895 8.62961 39.3188 8.62961H38.8238V2.296C38.8238 1.02974 38.0365 0.859375 37.1823 0.859375H35.7227L35.725 15.8058H38.8215V11.3256H39.1116C39.4639 11.3256 39.7033 11.367 39.8161 11.5581L41.5244 14.7836C42.0033 15.6585 42.4776 15.8082 43.3709 15.8082H45.7514L43.981 12.8865L42.8114 10.6625ZM57.8546 4.76866C56.2775 4.76866 55.2714 5.46856 54.7096 6.06255L54.5232 6.25364L54.4564 5.99579C54.2906 5.36035 53.7335 5.01501 52.8931 5.01501H51.5049L51.5141 15.8082H54.5922V10.8352C54.5922 10.3471 54.6544 9.9281 54.7833 9.54131C55.1264 8.37635 56.0818 7.64883 57.2744 7.64883C58.2345 7.64883 58.612 8.15533 58.612 9.46764V14.1689C58.612 15.2855 59.1277 15.8104 60.249 15.8104H61.7109L61.704 8.94502C61.704 6.2076 60.371 4.76866 57.8546 4.76866ZM48.1113 5.01271H46.6516L46.6608 13.3585V15.8058H48.2172L48.2724 15.8082L49 15.8058H49.7206V15.8035H49.7275L49.7344 6.65424C49.7298 5.54914 49.2026 5.01271 48.1113 5.01271ZM28.97 13.3585C27.4298 13.3585 26.3546 12.1337 26.3546 10.3816C26.3546 8.63191 27.4298 7.40709 28.97 7.40709C30.5172 7.40709 31.6062 8.63191 31.6062 10.3816C31.6039 12.1613 30.5448 13.3585 28.97 13.3585ZM28.97 4.79169C25.7054 4.79169 23.334 7.14233 23.334 10.3816C23.334 13.621 25.7054 15.9716 28.97 15.9716C32.2416 15.9716 34.6245 13.621 34.6245 10.384C34.6245 7.14233 32.2439 4.79169 28.97 4.79169Z" fill="#191825" fill-opacity="0.5"/>
</g>
</g>
<mask id="mask4_1156_1756" style="mask-type:luminance" maskUnits="userSpaceOnUse" x="0" y="0" width="118" height="20">
<path d="M117.933 0H0.0554199V20H117.933V0Z" fill="white"/>
</mask>
<g mask="url(#mask4_1156_1756)">
<mask id="mask5_1156_1756" style="mask-type:luminance" maskUnits="userSpaceOnUse" x="0" y="0" width="118" height="20">
<path d="M117.907 0.394531H0.0554199V19.9755H117.907V0.394531Z" fill="white"/>
</mask>
<g mask="url(#mask5_1156_1756)">
<mask id="mask6_1156_1756" style="mask-type:luminance" maskUnits="userSpaceOnUse" x="0" y="0" width="118" height="20">
<path d="M117.933 0H0.0554199V20H117.933V0Z" fill="white"/>
</mask>
<g mask="url(#mask6_1156_1756)">
<path d="M94.9258 13.3598C93.3856 13.3598 92.3104 12.135 92.3104 10.3829C92.3104 8.63319 93.3856 7.40837 94.9258 7.40837C96.4752 7.40837 97.5619 8.63319 97.5619 10.3829C97.5619 12.1626 96.5006 13.3598 94.9258 13.3598ZM94.9258 4.79297C91.6612 4.79297 89.2898 7.14361 89.2898 10.3829C89.2898 13.6223 91.6566 15.9729 94.9258 15.9729C98.1997 15.9729 100.58 13.6223 100.58 10.3852C100.58 7.14361 98.1974 4.79297 94.9258 4.79297Z" fill="#191825" fill-opacity="0.5"/>
</g>
<mask id="mask7_1156_1756" style="mask-type:luminance" maskUnits="userSpaceOnUse" x="0" y="0" width="118" height="20">
<path d="M117.933 0H0.0554199V20H117.933V0Z" fill="white"/>
</mask>
<g mask="url(#mask7_1156_1756)">
<path d="M68.1894 12.8824C66.5064 12.8824 65.9101 11.4158 65.9101 10.0414C65.9101 9.43356 66.0644 7.4605 68.0328 7.4605C69.009 7.4605 70.3098 7.74138 70.3098 10.1404C70.3075 12.4081 69.1541 12.8824 68.1894 12.8824ZM71.9053 4.98784C71.3205 4.98784 70.8716 5.22037 70.6459 5.64629L70.5631 5.81206L70.4203 5.68543C69.923 5.2549 69.032 4.74609 67.5885 4.74609C64.7106 4.74609 62.7744 6.90564 62.7744 10.1242C62.7744 13.3382 64.7797 15.583 67.6484 15.583C68.6268 15.583 69.4027 15.3527 70.0151 14.8877L70.25 14.7104V15.0097C70.25 16.4532 69.3175 17.2475 67.6276 17.2475C66.8034 17.2475 66.0575 17.0472 65.5579 16.8654C64.9063 16.6674 64.5218 16.8331 64.2594 17.4847L64.013 18.0879L63.6677 18.9697L63.8818 19.0825C64.9639 19.658 66.3729 19.9988 67.6438 19.9988C70.2638 19.9988 73.3235 18.6588 73.3235 14.8831L73.3327 4.98093H71.9053" fill="#191825" fill-opacity="0.5"/>
</g>
</g>
</g>
<mask id="mask8_1156_1756" style="mask-type:luminance" maskUnits="userSpaceOnUse" x="0" y="0" width="118" height="20">
<path d="M117.933 0H0.0554199V20H117.933V0Z" fill="white"/>
</mask>
<g mask="url(#mask8_1156_1756)">
<mask id="mask9_1156_1756" style="mask-type:luminance" maskUnits="userSpaceOnUse" x="0" y="0" width="118" height="20">
<path d="M117.933 0H0.0554199V20H117.933V0Z" fill="white"/>
</mask>
<g mask="url(#mask9_1156_1756)">
<path d="M5.42666 13.2351L2.91947 13.2328V10.2398C2.91947 9.59747 3.16812 9.26825 3.71376 9.18997H5.42206C6.63997 9.18997 7.42736 9.95893 7.43196 11.2022C7.43196 12.4799 6.66299 13.2351 5.42666 13.2351ZM2.91947 5.15866V4.37127C2.91947 3.68058 3.20956 3.35366 3.8519 3.31222H5.13427C6.23247 3.31222 6.89092 3.97067 6.89092 5.07117C6.89092 5.91151 6.43967 6.88998 5.17341 6.88998H2.91947V5.15866ZM8.62224 8.14703L8.171 7.89148L8.56469 7.55304C9.02745 7.15935 9.79411 6.26836 9.79411 4.73273C9.79411 2.38209 7.973 0.867188 5.15269 0.867188H1.57033C0.734596 0.897117 0.0646291 1.5809 0.0554199 2.41663V15.7515H5.21946C8.35518 15.7515 10.3766 14.0455 10.3766 11.4025C10.3766 9.98425 9.72044 8.76635 8.62224 8.14703Z" fill="#191825" fill-opacity="0.5"/>
</g>
<mask id="mask10_1156_1756" style="mask-type:luminance" maskUnits="userSpaceOnUse" x="0" y="0" width="118" height="20">
<path d="M117.933 0H0.0554199V20H117.933V0Z" fill="white"/>
</mask>
<g mask="url(#mask10_1156_1756)">
<path d="M114.325 4.80308C113.04 4.80538 111.822 5.39707 111.021 6.40548L110.798 6.68636L110.623 6.37095C110.052 5.33031 109.074 4.80539 107.706 4.80539C106.276 4.80539 105.316 5.60198 104.87 6.07855L104.579 6.39397L104.467 5.97725C104.305 5.37866 103.771 5.04943 102.966 5.04943H101.672L101.658 15.8011H104.596V11.0538C104.596 10.6371 104.646 10.2273 104.75 9.79675C105.031 8.65021 105.802 7.41618 107.098 7.5382C107.895 7.61648 108.286 8.2335 108.286 9.42378V15.7988H111.245V11.0515C111.245 10.5312 111.293 10.1398 111.41 9.75301C111.645 8.65712 112.453 7.5336 113.703 7.5336C114.608 7.5336 114.944 8.04471 114.944 9.42378V14.2264C114.944 15.3107 115.428 15.7988 116.515 15.7988H117.896L117.898 8.9357C117.907 6.19137 116.699 4.80308 114.325 4.80308ZM87.5886 12.0668C87.5793 12.076 86.3154 13.4114 84.6508 13.4114C83.1336 13.4114 81.6026 12.4812 81.6026 10.4046C81.6026 8.61108 82.7906 7.35633 84.492 7.35633C85.0445 7.35633 85.6707 7.55432 85.7697 7.88585L85.7836 7.94111C85.9125 8.41308 86.343 8.7377 86.8288 8.7354L88.4381 8.7377V7.3287C88.4381 5.47075 86.0783 4.80078 84.4874 4.80078C81.0892 4.80078 78.6257 7.16523 78.6257 10.423C78.6257 13.6784 81.0639 16.0429 84.4252 16.0429C87.3422 16.0429 88.9262 14.1251 88.9423 14.1089L89.0252 14.0053L87.7497 11.8895L87.5886 12.0668Z" fill="#191825" fill-opacity="0.5"/>
</g>
</g>
</svg>
