<svg width="65" height="20" viewBox="0 0 65 20" fill="none" xmlns="http://www.w3.org/2000/svg">
<path d="M34.4932 5.0253C34.4932 5.74609 33.9124 6.32648 33.1916 6.32648C32.4708 6.32648 31.8904 5.74609 31.8904 5.0253C31.8904 4.30452 32.451 3.72413 33.1916 3.72413C33.9328 3.74412 34.4932 4.32472 34.4932 5.0253ZM29.1277 7.64805V7.96844C29.1277 7.96844 28.5073 7.16726 27.1859 7.16726C25.004 7.16726 23.302 8.82902 23.302 11.1312C23.302 13.4135 24.984 15.0951 27.1859 15.0951C28.5273 15.0951 29.1277 14.2743 29.1277 14.2743V14.6145C29.1277 14.7747 29.2481 14.8945 29.4081 14.8945H31.0295V7.36686H29.4081C29.2481 7.36746 29.1277 7.50785 29.1277 7.64805ZM29.1277 12.4726C28.8277 12.9131 28.2269 13.2935 27.5063 13.2935C26.2252 13.2935 25.244 12.4928 25.244 11.1312C25.244 9.76981 26.2252 8.96902 27.5063 8.96902C28.2071 8.96902 28.8477 9.36941 29.1277 9.7898V12.4726ZM32.2308 7.36745H34.1526V14.8951H32.2308V7.36745ZM60.9393 7.16706C59.6179 7.16706 58.9971 7.96824 58.9971 7.96824V3.74413H57.0753V14.8951H58.6971C58.8573 14.8951 58.9771 14.7549 58.9771 14.6147V14.2745C58.9771 14.2745 59.5979 15.0953 60.9189 15.0953C63.1012 15.0953 64.8028 13.4141 64.8028 11.1318C64.8028 8.84942 63.1012 7.16706 60.9393 7.16706ZM60.6189 13.2733C59.8779 13.2733 59.2975 12.8933 58.9971 12.4525V9.7698C59.2975 9.36941 59.9381 8.94902 60.6189 8.94902C61.9 8.94902 62.881 9.7498 62.881 11.1112C62.881 12.4725 61.9002 13.2733 60.6189 13.2733ZM56.0746 10.4308V14.9151H54.1524V10.6508C54.1524 9.40981 53.752 8.90902 52.6716 8.90902C52.0912 8.90902 51.4904 9.20942 51.1094 9.65001V14.8953H49.1881V7.36766H50.7091C50.8693 7.36766 50.9895 7.50785 50.9895 7.64805V7.96844C51.55 7.38765 52.2906 7.16726 53.0312 7.16726C53.8722 7.16726 54.573 7.40785 55.1336 7.88824C55.814 8.44883 56.0746 9.16942 56.0746 10.4308ZM44.5228 7.16706C43.2018 7.16706 42.581 7.96824 42.581 7.96824V3.74413H40.6593V14.8951H42.2806C42.4408 14.8951 42.561 14.7549 42.561 14.6147V14.2745C42.561 14.2745 43.1818 15.0953 44.5028 15.0953C46.6851 15.0953 48.3867 13.4141 48.3867 11.1318C48.4067 8.84922 46.7051 7.16706 44.5228 7.16706ZM44.2024 13.2733C43.4618 13.2733 42.8814 12.8933 42.581 12.4525V9.7698C42.8814 9.36941 43.522 8.94902 44.2024 8.94902C45.484 8.94902 46.4647 9.7498 46.4647 11.1112C46.4647 12.4725 45.484 13.2733 44.2024 13.2733ZM38.9975 7.16706C39.5779 7.16706 39.8783 7.26746 39.8783 7.26746V9.04902C39.8783 9.04902 38.2767 8.50843 37.2759 9.64981V14.9149H35.3538V7.36745H36.9755C37.1357 7.36745 37.2555 7.50765 37.2555 7.64785V7.96824C37.6163 7.54765 38.3971 7.16706 38.9975 7.16706ZM19.0381 14.2143C18.9381 13.9741 18.8379 13.7139 18.7379 13.4935C18.5775 13.1333 18.4173 12.7927 18.2775 12.4726L18.2575 12.4525C16.8759 9.44941 15.3948 6.40667 13.833 3.40394L13.773 3.28353C13.6087 2.97203 13.4487 2.65835 13.2928 2.34256C13.0924 1.98196 12.8924 1.60197 12.572 1.24138C11.9314 0.440591 11.0105 0 10.0297 0C9.0285 0 8.12772 0.440594 7.46733 1.20118C7.16694 1.56137 6.94654 1.94177 6.74654 2.30236C6.5903 2.61795 6.43022 2.93163 6.26635 3.24334L6.20616 3.36373C4.66459 6.36647 3.16322 9.40941 1.78184 12.4124L1.76165 12.4522C1.62165 12.7729 1.46125 13.1131 1.30106 13.4731C1.20106 13.6935 1.10106 13.9337 1.00106 14.1939C0.740667 14.9345 0.660464 15.6353 0.760862 16.3563C0.981058 17.8578 1.98184 19.1186 3.36341 19.6796C3.884 19.9 4.42459 20 4.98498 20C5.14517 20 5.34518 19.98 5.50557 19.9598C6.16636 19.8798 6.84694 19.6598 7.50773 19.2794C8.32851 18.8188 9.10929 18.1584 9.99008 17.1975C10.8709 18.1584 11.6716 18.8188 12.4724 19.2794C13.1334 19.6598 13.8138 19.8798 14.4744 19.9598C14.6346 19.9802 14.835 20 14.9952 20C15.5558 20 16.1162 19.9 16.6165 19.6796C18.0181 19.1186 18.9989 17.8378 19.2193 16.3563C19.3783 15.6557 19.2983 14.9553 19.0381 14.2143ZM10.0095 15.2553C8.9283 13.8939 8.22751 12.6127 7.98752 11.532C7.88752 11.0714 7.86732 10.671 7.92752 10.3106C7.96732 9.9902 8.08772 9.7098 8.24791 9.46961C8.6283 8.92942 9.2689 8.58883 10.0097 8.58883C10.7507 8.58883 11.4113 8.90922 11.7716 9.46961C11.9318 9.7098 12.0518 9.9904 12.0922 10.3106C12.152 10.6712 12.132 11.0914 12.032 11.532C11.791 12.5927 11.0903 13.8741 10.0095 15.2553ZM17.9969 16.1963C17.8569 17.2373 17.1561 18.1384 16.1754 18.5388C15.695 18.7388 15.1742 18.799 14.654 18.7388C14.1536 18.6786 13.6528 18.5184 13.1326 18.2184C12.4118 17.8176 11.6912 17.1975 10.8503 16.2763C12.1714 14.6549 12.9722 13.1731 13.2726 11.8522C13.4128 11.2314 13.433 10.671 13.3726 10.1502C13.2928 9.64981 13.1124 9.18922 12.8322 8.78882C12.2112 7.88764 11.1701 7.36745 10.0093 7.36745C8.8485 7.36745 7.80732 7.90804 7.18673 8.78882C6.90654 9.18922 6.72614 9.64981 6.64614 10.1502C6.56615 10.671 6.58595 11.2514 6.74614 11.8522C7.04634 13.1731 7.86712 14.6747 9.1683 16.2963C8.34751 17.2173 7.60673 17.838 6.88594 18.2384C6.36535 18.5388 5.86516 18.699 5.36477 18.7588C4.82438 18.819 4.30359 18.7388 3.8432 18.5588C2.86242 18.1584 2.16164 17.2573 2.02164 16.2163C1.96164 15.7159 2.00144 15.2155 2.20184 14.6549C2.26164 14.4545 2.36203 14.2545 2.46203 14.0143C2.60223 13.6939 2.76202 13.3533 2.92242 13.0131L2.94262 12.9733C4.3238 9.9902 5.80517 6.94726 7.34673 3.98452L7.40673 3.86413C7.56713 3.56413 7.72733 3.24374 7.88732 2.94334C8.04752 2.62295 8.22751 2.32255 8.44791 2.06216C8.8683 1.58217 9.42869 1.32157 10.0495 1.32157C10.6703 1.32157 11.2307 1.58217 11.651 2.06216C11.8714 2.32315 12.0514 2.62355 12.2116 2.94334C12.372 3.24374 12.5322 3.56413 12.692 3.86413L12.7522 3.98452C14.2703 6.95957 15.732 9.96305 17.1365 12.9933V13.0133C17.2969 13.3341 17.4369 13.6941 17.5971 14.0149C17.6971 14.2547 17.7973 14.4547 17.8573 14.6551C18.0171 15.1751 18.0771 15.6759 17.9969 16.1963Z" fill="#191825" fill-opacity="0.5"/>
</svg>
