<svg width="110" height="20" viewBox="0 0 110 20" fill="none" xmlns="http://www.w3.org/2000/svg">
<path d="M63.1818 19.4645L71.497 0.646722C71.6284 0.361172 71.4742 0.115599 71.1544 0.115599H65.3292C65.1586 0.125286 64.9936 0.180088 64.8511 0.274406C64.7086 0.368723 64.5938 0.499176 64.5182 0.652433L56.3058 19.4645C56.1858 19.7557 56.34 19.9956 56.6541 19.9956H62.3709C62.6907 19.9956 63.0562 19.7557 63.1818 19.4645ZM92.999 14.3988L105.906 0.12131H90.8116L87.3965 5.62101H93.3188L80.2006 20.0013H96.1743L102.125 14.3988H92.999ZM37.7622 0.115599H27.7679C27.4716 0.132769 27.1851 0.2279 26.9374 0.391366C26.6897 0.554832 26.4896 0.780831 26.3573 1.04649L18.4932 19.0704C18.2648 19.5844 18.5446 20.0013 19.1043 20.0013H24.0558C24.6154 20.0013 25.2551 19.5844 25.4721 19.0761L27.7165 13.9648H30.0409C30.7662 13.9191 31.0746 14.1875 30.6748 15.027L28.9501 19.0704C28.7331 19.5844 29.0072 20.0013 29.5669 20.0013H34.5183C34.8157 19.9857 35.1037 19.8913 35.3525 19.7277C35.6014 19.5641 35.8023 19.3373 35.9346 19.0704L38.1848 13.8677C38.8929 12.1772 37.8707 10.8694 36.3858 10.8009C37.6993 10.3269 38.9101 9.01905 39.4526 7.83116L40.6177 5.08988C42.0226 1.90314 41.0231 0.075622 37.7622 0.12131M34.8495 5.80376L33.616 8.51648C33.3304 9.16754 32.9192 9.21894 32.508 9.2018H29.7268L31.5886 4.97566H34.2556C34.9067 5.01564 35.0723 5.24979 34.8495 5.80376ZM57.2138 0.109888H46.6256C46.4136 0.120939 46.2083 0.188093 46.0307 0.304486C45.8531 0.420879 45.7095 0.582339 45.6148 0.772364L37.5109 19.3331C37.3567 19.6986 37.5451 19.9899 37.9449 19.9899H49.2812C52.8735 19.9385 54.9351 19.1447 56.5742 15.3411L57.7392 12.8054C58.653 10.6353 57.7564 9.69295 56.0431 9.41882C57.4708 8.97907 58.5445 7.63699 59.0071 6.45481L59.9551 4.44454C61.1202 1.76037 60.1493 0.075622 57.2081 0.109888M52.0168 12.5599L51.2972 14.0048C50.9374 15.0099 50.3092 15.284 49.424 15.2954H46.1116L47.6993 11.5547H51.0117C51.9483 11.6233 52.3138 11.8517 52.0168 12.5599ZM53.9186 5.90084L53.4217 7.04304L53.3475 7.19153C53.265 7.42979 53.106 7.63406 52.8952 7.77249C52.6845 7.91092 52.4339 7.97572 52.1824 7.9568H49.3098L50.6233 4.92997H53.5531C54.0785 4.96424 54.1642 5.3069 53.9186 5.90084ZM73.3303 0.115599L70.8688 5.62101H74.3811C74.621 5.62101 74.7352 5.79233 74.6381 6.01506L68.4988 19.6072C68.396 19.8243 68.5159 20.0013 68.7558 20.0013H75.0093C75.2492 20.0013 75.5233 19.8243 75.6204 19.6015L81.5141 6.01506C81.5706 5.90078 81.6564 5.80355 81.7628 5.73331C81.8691 5.66307 81.9922 5.62234 82.1195 5.61529H85.7231L89.1155 0.115599H73.3303ZM21.4458 6.88885L22.2225 5.19268C23.7873 1.61759 22.7536 0.081333 19.6811 0.12131H12.2854C9.24142 0.081333 6.70573 1.79463 5.30083 4.98137L3.01642 11.4348H0.857666L4.98672 17.0087L11.8114 11.4348H10.0752L12.0798 6.78034C12.4053 6.01506 12.965 5.64956 13.5646 5.62101H14.7297C15.0038 5.63243 15.1923 5.71809 15.3008 5.83802L18.9216 2.79406L21.4458 6.88885Z" fill="#191825" fill-opacity="0.5"/>
<path d="M4.83258 18.6464L1.79433 14.7972L1.63442 15.1399C0.2238 18.3495 0.457951 19.9485 3.50191 19.9942H10.8006C13.8217 19.9485 16.4659 18.3495 17.8822 15.1399L20.0524 10.1656H21.9941L18.6818 4.58594L11.9142 10.1656H13.7703L12.3997 13.3352C12.0684 14.0091 11.5658 14.3746 11.029 14.3974H10.0581L4.83258 18.6464Z" fill="#191825" fill-opacity="0.5"/>
<path d="M108.31 7.59837e-05C108.579 7.59837e-05 108.807 0.097163 108.996 0.285626C109.184 0.474089 109.281 0.702529 109.281 0.970946C109.281 1.23365 109.184 1.46209 108.996 1.65627C108.807 1.85044 108.579 1.94182 108.31 1.94182C108.183 1.94378 108.056 1.91944 107.938 1.87032C107.82 1.82119 107.713 1.74833 107.625 1.65627C107.436 1.46209 107.339 1.23365 107.339 0.970946C107.339 0.70824 107.436 0.468378 107.625 0.285626C107.714 0.193833 107.82 0.121151 107.938 0.0720465C108.056 0.0229414 108.183 -0.00155019 108.31 7.59837e-05ZM108.31 1.75906C108.415 1.76143 108.519 1.7424 108.616 1.70312C108.714 1.66384 108.802 1.60515 108.876 1.53062C108.95 1.45707 109.009 1.36893 109.049 1.27167C109.088 1.1744 109.107 1.0701 109.104 0.965235C109.106 0.861323 109.087 0.758108 109.047 0.661884C109.008 0.565661 108.95 0.478446 108.876 0.405557C108.802 0.330762 108.714 0.271888 108.617 0.23259C108.519 0.193292 108.415 0.17441 108.31 0.177117C108.206 0.174857 108.103 0.193967 108.007 0.233261C107.91 0.272556 107.823 0.331198 107.751 0.405557C107.596 0.559754 107.522 0.748217 107.522 0.965235C107.522 1.18225 107.596 1.37643 107.751 1.53062C107.905 1.68482 108.093 1.75906 108.31 1.75906ZM108.807 1.48494H108.579L108.293 1.07374H108.173V1.48494H107.968V0.439823H108.293C108.407 0.439823 108.499 0.468378 108.567 0.519777C108.636 0.576887 108.676 0.65113 108.676 0.748217C108.676 0.873859 108.607 0.970946 108.476 1.02235L108.807 1.48494ZM108.179 0.902414H108.287C108.419 0.902414 108.482 0.851015 108.482 0.753928C108.482 0.656841 108.424 0.611153 108.293 0.611153H108.179V0.902414Z" fill="#191825" fill-opacity="0.5"/>
</svg>
