<svg width="133" height="20" viewBox="0 0 133 20" fill="none" xmlns="http://www.w3.org/2000/svg">
<path d="M14.2506 12.015C15.3892 15.0997 18.8208 16.6787 21.9064 15.5428C24.9903 14.3989 26.5728 10.9709 25.4298 7.88525C24.2904 4.79611 20.8641 3.21976 17.774 4.35833C14.6867 5.50132 13.1103 8.92762 14.2506 12.015Z" fill="white"/>
<path d="M6.63005 15.8876C9.92134 15.8876 12.5895 13.2194 12.5895 9.92815C12.5895 6.63686 9.92134 3.96875 6.63005 3.96875C3.33877 3.96875 0.670654 6.63686 0.670654 9.92815C0.670654 13.2194 3.33877 15.8876 6.63005 15.8876Z" fill="white"/>
<path d="M7.64612 9.8675C7.64612 10.4747 7.15274 10.9725 6.5455 10.9725C5.93561 10.9725 5.44312 10.4756 5.44312 9.8675C5.44312 9.26115 5.93561 8.76953 6.5455 8.76953C7.15274 8.77041 7.64612 9.26115 7.64612 9.8675Z" fill="#191825" fill-opacity="0.5"/>
<path d="M20.9266 9.8675C20.9266 10.4747 20.435 10.9725 19.8277 10.9725C19.2161 10.9725 18.7253 10.4756 18.7253 9.8675C18.7253 9.26115 19.2161 8.76953 19.8277 8.76953C20.4358 8.77041 20.9266 9.26115 20.9266 9.8675Z" fill="#191825" fill-opacity="0.5"/>
<path d="M3.271 9.86383C3.271 11.6705 4.74055 13.1374 6.54725 13.1374C8.34955 13.1374 9.81822 11.6705 9.81822 9.86383C9.81822 8.06153 8.34867 6.59375 6.54725 6.59375C4.74143 6.59552 3.271 8.06242 3.271 9.86383ZM4.39986 9.86383C4.39986 8.68201 5.36544 7.72085 6.54902 7.72085C7.73084 7.72085 8.69112 8.68466 8.69112 9.86383C8.69112 11.0492 7.73084 12.0121 6.54902 12.0121C5.36544 12.013 4.39986 11.0509 4.39986 9.86383Z" fill="#191825" fill-opacity="0.5"/>
<path d="M16.5532 9.86383C16.5532 11.6705 18.021 13.1374 19.8268 13.1374C21.63 13.1374 23.0969 11.6705 23.0969 9.86383C23.0969 8.06153 21.63 6.59375 19.8268 6.59375C18.0219 6.59552 16.5532 8.06242 16.5532 9.86383ZM17.6821 9.86383C17.6821 8.68201 18.645 7.72085 19.8295 7.72085C21.0113 7.72085 21.9707 8.68466 21.9707 9.86383C21.9707 11.0492 21.0113 12.0121 19.8295 12.0121C18.6432 12.013 17.6821 11.0509 17.6821 9.86383Z" fill="#191825" fill-opacity="0.5"/>
<path d="M17.5447 3.73253C18.2349 3.47834 18.941 3.35478 19.6382 3.33536C17.7389 2.4854 15.5888 2.05469 13.2066 2.05469C10.843 2.05469 8.66119 2.49511 6.7627 3.30711C10.1987 3.37508 12.9922 6.06616 13.2331 9.45804C13.2914 8.67958 13.482 7.90994 13.8183 7.1809C14.5588 5.56837 15.8836 4.34507 17.5447 3.73253Z" fill="white"/>
<path d="M25.1686 6.01406C25.4793 4.68396 26.4651 3.35298 26.4651 3.35298L22.0406 3.35033C19.5596 1.74839 16.5463 0.898438 13.2083 0.898438C9.74316 0.898438 6.6143 1.76869 4.1474 3.38211L0 3.38564C0 3.38564 0.974404 4.70161 1.2895 6.022C0.482789 7.11909 0.00353045 8.46684 0.00353045 9.93021C0.00353045 13.5833 2.97705 16.5551 6.63195 16.5551C8.7211 16.5551 10.5843 15.5816 11.7996 14.0688L13.2109 16.1818L14.6328 14.0502C15.2727 14.864 16.098 15.5242 17.0653 15.9717C18.6743 16.7113 20.4775 16.7846 22.1377 16.1712C25.5666 14.9029 27.3274 11.0803 26.0591 7.65572C25.8367 7.05289 25.5331 6.50479 25.1686 6.01406ZM13.2074 2.05554C15.5896 2.05554 17.7396 2.48626 19.639 3.3371C18.9409 3.35563 18.2357 3.48008 17.5455 3.73251C15.8844 4.34504 14.5596 5.56834 13.8208 7.17823C13.4846 7.90726 13.2948 8.6769 13.2357 9.45537C12.9929 6.06525 10.1995 3.37417 6.76346 3.30444C8.66108 2.49508 10.842 2.05554 13.2074 2.05554ZM11.0115 12.8905C10.06 14.2938 8.45013 15.2188 6.63019 15.2188C3.71227 15.2188 1.33804 12.8428 1.33804 9.93109C1.33804 7.01141 3.71315 4.63983 6.63019 4.63983C9.54722 4.63983 11.9214 7.01141 11.9214 9.93109C11.9214 10.1094 11.887 10.2771 11.8685 10.4492C11.7802 11.3433 11.4925 12.1809 11.0115 12.8905ZM21.6743 14.917C20.3486 15.4042 18.9109 15.3503 17.6267 14.7581C16.7158 14.3362 15.97 13.6751 15.4325 12.8543C15.2136 12.5224 15.0212 12.1703 14.8791 11.7846C14.7176 11.3486 14.6372 10.8993 14.594 10.4465C14.5057 9.52862 14.639 8.60011 15.0344 7.73957C15.6275 6.45537 16.6831 5.47831 18.0088 4.98758C20.7467 3.97787 23.7944 5.38211 24.8058 8.11909C25.8164 10.8561 24.4113 13.9037 21.6743 14.917Z" fill="#191825" fill-opacity="0.5"/>
<path d="M34.2827 1.86672L32.3427 2.53662C32.3427 2.53662 32.3427 4.85965 32.3427 5.06795C32.1397 5.06795 30.1926 5.06795 30.1926 5.06795V6.76521C30.1926 6.76521 32.0797 6.76521 32.2844 6.76521C32.2844 6.98587 32.2844 12.2145 32.2844 12.2145C32.2844 14.8041 33.1661 15.8667 35.3347 15.8667C35.8846 15.8667 36.4097 15.7988 36.9367 15.6549L37.0223 15.6337L36.9985 13.8738L36.8502 13.9303C36.4239 14.0777 36.0902 14.15 35.8325 14.15C34.814 14.15 34.4362 13.5772 34.4362 12.0309C34.4362 12.0309 34.4362 6.98499 34.4362 6.76786C34.6428 6.76786 36.9173 6.76786 36.9173 6.76786V5.06795C36.9173 5.06795 34.6436 5.06795 34.4362 5.06795C34.4362 4.85789 34.4362 1.81641 34.4362 1.81641L34.2827 1.86672Z" fill="#191825" fill-opacity="0.5"/>
<path d="M40.9904 6.78661C40.9904 6.18908 40.9904 5.06728 40.9904 5.06728H39.0222V15.6789H41.174V10.3524C41.174 8.11935 42.1122 6.88899 43.8122 6.88899C44.0584 6.88899 44.2976 6.92606 44.5889 7.00814L44.7283 7.04786L44.7989 4.95342L43.8731 4.88281C42.6259 4.88193 41.6189 5.55536 40.9904 6.78661Z" fill="#191825" fill-opacity="0.5"/>
<path d="M48.6338 5.0659H46.5967V15.6784H48.7485V5.0659H48.6338ZM46.3884 1.95646C46.3884 2.66255 46.9639 3.23536 47.6682 3.23536C48.3743 3.23536 48.948 2.66255 48.948 1.95646C48.948 1.25125 48.3743 0.675785 47.6682 0.675785C46.9639 0.67402 46.3884 1.25125 46.3884 1.95646Z" fill="#191825" fill-opacity="0.5"/>
<path d="M56.3479 4.81641C54.8713 4.81641 53.6295 5.51544 52.8016 6.78728C52.8016 6.2789 52.8016 5.06354 52.8016 5.06354H50.8342V19.9982H52.9878C52.9878 19.9982 52.9878 14.7829 52.9878 14.2092C53.7645 15.2657 54.8784 15.8464 56.2649 15.8464C58.9852 15.8464 60.7424 13.6143 60.7424 10.1677C60.7424 6.96733 58.9754 4.81641 56.3479 4.81641ZM55.7468 14.1059C54.0443 14.1059 52.9869 12.6505 52.9869 10.3124C52.9869 8.05559 54.1025 6.59752 55.8289 6.59752C57.4927 6.59752 58.4874 7.97969 58.4874 10.2904C58.4882 12.6425 57.4371 14.1059 55.7468 14.1059Z" fill="#191825" fill-opacity="0.5"/>
<path d="M67.0318 4.81641C65.7158 4.81641 64.5631 5.0653 63.5058 5.57369L63.4405 5.60546L63.4634 7.44218L63.6329 7.34686C64.6435 6.78198 65.6002 6.49337 66.4713 6.49337C68.03 6.49337 68.925 7.38657 68.925 8.94792C68.925 8.94792 68.925 8.99293 68.925 9.03882C68.7353 9.03882 67.6938 9.03882 67.6938 9.03882C64.151 9.03882 62.2021 10.3221 62.2021 12.6487C62.2021 14.5172 63.609 15.8235 65.6232 15.8235C67.1051 15.8235 68.2516 15.2409 69.0689 14.1447C69.0689 14.571 69.0689 15.677 69.0689 15.677H71.0133V9.25506C71.0124 6.31155 69.6735 4.81641 67.0318 4.81641ZM68.9215 11.1977C68.9215 13.0256 67.8217 14.2083 66.1201 14.2083C65.0777 14.2083 64.3504 13.5234 64.3504 12.5437C64.3504 11.2559 65.5817 10.549 67.8164 10.549C67.8164 10.549 68.737 10.549 68.9232 10.549C68.9215 10.714 68.9215 11.1977 68.9215 11.1977Z" fill="#191825" fill-opacity="0.5"/>
<path d="M80.1516 0C80.1516 0 80.1516 5.91615 80.1516 6.5075C79.3582 5.40424 78.254 4.81995 76.8357 4.81995C74.2028 4.81995 72.4341 6.98764 72.4341 10.2092C72.4341 13.5278 74.2284 15.8455 76.7924 15.8455C78.3114 15.8455 79.4959 15.173 80.3167 13.8658C80.3167 14.3945 80.3167 15.6805 80.3167 15.6805H82.3061V0H80.1516ZM77.3502 14.0644C75.7103 14.0644 74.6918 12.6346 74.6918 10.3327C74.6918 8.02824 75.7192 6.53839 77.3114 6.53839C79.089 6.53839 80.1499 7.95587 80.1499 10.3327C80.1516 12.6037 79.0554 14.0644 77.3502 14.0644Z" fill="#191825" fill-opacity="0.5"/>
<path d="M91.9216 5.06641L88.8704 11.1944L86.0495 5.06641H83.625L88.8254 15.6789L94.1669 5.06641H91.9216Z" fill="#191825" fill-opacity="0.5"/>
<path d="M97.2995 5.0659H95.2616V15.6784H97.416V5.0659H97.2995ZM95.0559 1.95646C95.0559 2.66255 95.6305 3.23536 96.3357 3.23536C97.0444 3.23536 97.6155 2.66255 97.6155 1.95646C97.6155 1.25125 97.0427 0.675785 96.3357 0.675785C95.6314 0.67402 95.0559 1.25125 95.0559 1.95646Z" fill="#191825" fill-opacity="0.5"/>
<path d="M99.9389 7.78733C99.9389 9.27983 100.965 10.0662 102.859 10.993C104.053 11.5799 104.677 11.9259 104.677 12.7529C104.677 13.6011 103.911 14.1492 102.721 14.1492C101.88 14.1492 100.946 13.9127 100.021 13.4581L99.8639 13.3805L99.7942 15.2516L99.8657 15.2781C100.75 15.6302 101.679 15.8023 102.64 15.8023C105.272 15.8023 106.971 14.5481 106.971 12.6073C106.971 10.9895 105.895 10.1677 104.03 9.29748C102.664 8.65582 102.092 8.28248 102.092 7.60198C102.092 6.95768 102.729 6.53755 103.714 6.53755C104.604 6.53755 105.472 6.73526 106.294 7.12714L106.449 7.19863L106.543 5.36809L106.457 5.34338C105.566 5.07859 104.686 4.94532 103.838 4.94532C101.506 4.94179 99.9389 6.08566 99.9389 7.78733Z" fill="#191825" fill-opacity="0.5"/>
<path d="M113.685 4.81641C110.451 4.81641 108.443 6.94615 108.443 10.3707C108.443 13.797 110.453 15.9232 113.685 15.9232C116.934 15.9232 118.951 13.7961 118.951 10.3707C118.951 6.94703 116.932 4.81641 113.685 4.81641ZM113.704 14.1677C111.916 14.1677 110.716 12.6337 110.716 10.3504C110.716 8.05471 111.916 6.51544 113.704 6.51544C115.52 6.51544 116.693 8.02206 116.693 10.3504C116.693 12.6699 115.522 14.1677 113.704 14.1677Z" fill="#191825" fill-opacity="0.5"/>
<path d="M122.921 6.78661C122.921 6.18908 122.921 5.06728 122.921 5.06728H120.952V15.6789H123.104V10.3524C123.104 8.11935 124.037 6.88899 125.74 6.88899C125.984 6.88899 126.222 6.92606 126.508 7.00814L126.653 7.04786L126.72 4.95342L125.798 4.88281C124.556 4.88193 123.551 5.55536 122.921 6.78661Z" fill="#191825" fill-opacity="0.5"/>
<path d="M131.853 4.59727C132.206 4.95472 132.392 5.42957 132.392 5.9406C132.392 6.47458 132.192 6.95296 131.825 7.30512C131.442 7.66876 130.967 7.86382 130.471 7.86382C129.953 7.86382 129.476 7.65993 129.106 7.27688C128.752 6.90971 128.552 6.44016 128.552 5.93884C128.552 5.4278 128.755 4.93266 129.137 4.55667C129.494 4.20627 129.954 4.01562 130.471 4.01562C131.002 4.01651 131.484 4.21774 131.853 4.59727ZM129.375 4.80821C129.064 5.11889 128.898 5.51871 128.898 5.9406C128.898 6.3519 129.052 6.73054 129.349 7.03239C129.646 7.34307 130.04 7.51077 130.463 7.51077C130.875 7.51077 131.27 7.35278 131.575 7.05622C131.875 6.76761 132.04 6.3722 132.04 5.93972C132.04 5.51695 131.887 5.13301 131.596 4.8391C131.29 4.52842 130.903 4.36514 130.471 4.36514C130.046 4.36514 129.672 4.51695 129.375 4.80821ZM130.506 4.8444C131.108 4.8444 131.417 5.0624 131.417 5.45693C131.417 5.72878 131.256 5.93972 130.969 6.02622L131.442 6.95208H130.801L130.407 6.11624H130.24V6.95208H129.659V4.84352L130.506 4.8444ZM130.236 5.77291H130.438C130.696 5.77291 130.821 5.682 130.821 5.50106C130.821 5.29453 130.69 5.2098 130.407 5.2098H130.236V5.77291Z" fill="#191825" fill-opacity="0.5"/>
</svg>
