<svg width="72" height="20" viewBox="0 0 72 20" fill="none" xmlns="http://www.w3.org/2000/svg">
<path d="M34.3553 15.6465H32.1584C32.1445 15.6465 32.1445 15.6465 32.1376 15.6395L30.2466 13.3314L28.3556 15.6395C28.3487 15.6465 28.3417 15.6465 28.3348 15.6465H26.5759C26.562 15.6465 26.555 15.6395 26.5481 15.6326C26.5481 15.6256 26.5481 15.6117 26.555 15.6048L29.3428 12.1843L26.5898 8.79866C26.5829 8.78476 26.5829 8.77781 26.5829 8.7639C26.5898 8.75695 26.5968 8.75 26.6037 8.75H28.8006C28.8075 8.75 28.8145 8.75695 28.8214 8.7639L30.483 10.8217L32.1723 8.7639C32.1793 8.75695 32.1862 8.75 32.1932 8.75H33.9799C33.9868 8.75 34.0007 8.75695 34.0077 8.7639C34.0146 8.77781 34.0077 8.78476 34.0007 8.79866L31.3937 11.9341L34.3831 15.6048C34.3901 15.6117 34.3901 15.6256 34.3901 15.6326C34.3762 15.6465 34.3692 15.6465 34.3553 15.6465Z" fill="#191825" fill-opacity="0.5"/>
<path d="M46.2364 9.95954C45.2632 9.95954 44.6027 10.5505 44.408 11.5724H47.7172V11.5029C47.7172 10.6895 47.1124 9.95954 46.2364 9.95954ZM49.4205 12.6291C49.4136 12.6361 49.4066 12.6431 49.3997 12.6431H44.3733C44.4776 13.811 45.2353 14.4784 46.4659 14.4784C47.2236 14.4784 48.0301 14.2212 49.1633 13.6163C49.1841 13.6024 49.205 13.6233 49.205 13.6442V15.1875C49.205 15.2014 49.198 15.2084 49.1911 15.2084C48.1344 15.6533 47.0707 15.9592 46.2364 15.9592C44.0743 15.9592 42.5032 14.3811 42.5032 12.212C42.5032 10.043 44.0743 8.46484 46.2364 8.46484C48.2108 8.46484 49.4761 9.79269 49.4761 11.6211C49.4761 11.92 49.4275 12.6083 49.4205 12.6291Z" fill="#191825" fill-opacity="0.5"/>
<path d="M59.6261 7.31756C59.0074 7.31756 58.5068 6.82396 58.5068 6.21913C58.5068 5.59344 59.0074 5.08594 59.6261 5.08594C60.2449 5.08594 60.7454 5.59344 60.7454 6.21913C60.7454 6.82396 60.2449 7.31756 59.6261 7.31756ZM58.7223 15.6462C58.7015 15.6462 58.6945 15.6392 58.6945 15.6184V8.77055C58.6945 8.75664 58.7015 8.74274 58.7154 8.74274H60.5299C60.5438 8.74274 60.5508 8.75664 60.5508 8.77055V15.6184C60.5508 15.6392 60.5368 15.6462 60.5229 15.6462H58.7223Z" fill="#191825" fill-opacity="0.5"/>
<path d="M37.6783 14.6174C37.3516 14.6174 37.0179 14.5688 36.6285 14.4715L36.6355 10.0777C37.0874 9.93174 37.4767 9.86917 37.866 9.86917C39.1243 9.86917 39.9655 10.7938 39.9655 12.1773C39.9655 13.6581 39.0687 14.6174 37.6783 14.6174ZM38.1719 8.46484C37.6575 8.46484 37.143 8.55522 36.6007 8.74293H34.7932C34.7793 8.74293 34.7654 8.75683 34.7654 8.77074V19.9984C35.3076 19.9219 35.975 19.7272 36.6285 19.2684V15.8549C37.0735 15.9175 37.4419 15.9592 37.7965 15.9592C40.2714 15.9592 41.8704 14.4784 41.8704 12.1842C41.8704 9.9943 40.3479 8.46484 38.1719 8.46484Z" fill="#191825" fill-opacity="0.5"/>
<path d="M55.4201 14.0501C54.857 14.3491 54.3495 14.4881 53.8767 14.4881C52.7575 14.4881 52.0831 13.6956 52.0831 12.3677C52.0831 10.8383 52.9382 9.84411 54.2661 9.84411C54.6345 9.84411 54.9891 9.93449 55.4201 10.1291V14.0501ZM55.4201 5.12364V8.70397C54.8917 8.55102 54.426 8.4815 53.9532 8.4815C51.7981 8.4815 50.1782 10.1013 50.1782 12.2565C50.1782 14.3977 51.6104 15.955 53.5847 15.955C54.2661 15.955 54.9056 15.7812 55.6565 15.3988V16.0176C56.1501 15.9202 56.7201 15.7256 57.2833 15.3224V4.38672C56.734 4.46319 56.0805 4.6509 55.4201 5.12364Z" fill="#191825" fill-opacity="0.5"/>
<path d="M66.8425 14.0352C66.2933 14.348 65.8275 14.501 65.4103 14.501C64.2076 14.501 63.4916 13.7084 63.4916 12.3806C63.4916 10.872 64.3397 9.85698 65.598 9.85698C65.9317 9.85698 66.3419 9.98907 66.8425 10.2533V14.0352ZM68.7056 8.66122C68.7056 8.61951 68.6709 8.58475 68.6292 8.58475H67.1623C67.1205 8.58475 67.0788 8.61951 67.0788 8.66122V8.9115H67.0441C66.3697 8.61256 65.7857 8.48047 65.2226 8.48047C63.1926 8.48047 61.6006 10.1629 61.6006 12.318C61.6006 14.494 63.0258 15.954 65.1462 15.954C65.7093 15.954 66.4392 15.9123 67.1206 15.1336V16.0165C67.6002 15.9123 68.1703 15.7106 68.7056 15.3213V8.66122Z" fill="#191825" fill-opacity="0.5"/>
<path d="M21.5565 13.9396H26.1101C26.0406 14.4471 25.8668 15.0449 25.4774 15.6498H20.7431C20.166 15.6498 19.6863 15.1979 19.6307 14.6348C19.6307 14.6278 19.6238 14.6209 19.6238 14.607V5.62485C19.6238 5.61789 19.6307 5.61094 19.6307 5.60399C19.6863 5.03392 20.166 4.58203 20.7431 4.58203H26.1031C26.0336 5.08953 25.8598 5.70132 25.4635 6.30615H21.5565V8.75329H25.4288C25.4427 8.75329 25.4566 8.76719 25.4566 8.7811V10.4774C25.4566 10.4913 25.4427 10.5052 25.4288 10.5052H21.5565V13.9396Z" fill="#191825" fill-opacity="0.5"/>
<path d="M15.8558 15.7952C15.404 15.7952 15.1259 15.4407 15.1259 15.0096C15.1259 14.5508 15.4457 14.2241 15.8558 14.2241C16.2591 14.2241 16.5789 14.5438 16.5789 15.0096C16.5789 15.4754 16.2591 15.7952 15.8558 15.7952ZM15.8558 14.1406C15.397 14.1406 15.0007 14.4882 15.0007 15.0096C15.0007 15.5032 15.3553 15.8786 15.8558 15.8786C16.3077 15.8786 16.704 15.531 16.704 15.0096C16.704 14.4882 16.3147 14.1406 15.8558 14.1406Z" fill="#191825" fill-opacity="0.5"/>
<path d="M15.654 14.9402V14.6204H15.8696C15.9808 14.6204 16.1059 14.6343 16.1059 14.7664C16.1059 14.9263 15.9877 14.9332 15.8556 14.9332C15.8487 14.9402 15.654 14.9402 15.654 14.9402ZM16.2589 14.7872C16.2589 14.5787 16.1337 14.4883 15.8835 14.4883H15.4941V15.5172H15.661V15.0792H15.8209L16.0851 15.5172H16.2797L15.9947 15.0653C16.1476 15.0514 16.2589 14.9749 16.2589 14.7872Z" fill="#191825" fill-opacity="0.5"/>
<path d="M70.2072 9.88593C69.7553 9.88593 69.4772 9.53137 69.4772 9.10034C69.4772 8.6415 69.797 8.31475 70.2072 8.31475C70.6104 8.31475 70.9302 8.63455 70.9302 9.10034C70.9302 9.56613 70.6104 9.88593 70.2072 9.88593ZM70.2072 8.23828C69.7483 8.23828 69.3521 8.58589 69.3521 9.10729C69.3521 9.60089 69.7066 9.9763 70.2072 9.9763C70.659 9.9763 71.0553 9.6287 71.0553 9.10729C71.0553 8.57893 70.659 8.23828 70.2072 8.23828Z" fill="#191825" fill-opacity="0.5"/>
<path d="M69.9987 9.03087V8.71803H70.2142C70.3254 8.71803 70.4505 8.73193 70.4505 8.86402C70.4505 9.02392 70.3324 9.03087 70.2003 9.03087H69.9987ZM70.6104 8.88488C70.6104 8.67631 70.4853 8.58594 70.235 8.58594H69.8457V9.61485H70.0126V9.17687H70.1725L70.4366 9.61485H70.6313L70.3463 9.16296C70.4922 9.14906 70.6104 9.07258 70.6104 8.88488Z" fill="#191825" fill-opacity="0.5"/>
<path d="M9.9812 6.29742L9.65445 5.36584L6.8458 1.61866L7.34636 1.49352L12.1781 5.67173L15.0215 4.85833C15.3552 4.77491 15.7375 4.75405 16.0226 4.75405C15.1327 2.82832 13.492 1.24324 11.3369 0.478514C7.07522 -1.04399 2.38256 1.18763 0.867004 5.45621C0.394262 6.77711 0.28998 8.13972 0.484639 9.43281L7.29074 7.0691L9.9812 6.29742Z" fill="#191825" fill-opacity="0.5"/>
<path d="M16.3285 5.49219C16.0782 5.65209 15.7098 5.8676 15.3483 5.98579L12.4979 6.79918L10.6 12.9031L10.1064 13.063L10.5096 8.40511L10.2871 7.43877L7.61753 8.2035L0.554199 9.85115C1.11732 12.5625 3.0361 14.9331 5.83779 15.9273C10.1064 17.4498 14.7921 15.2182 16.3146 10.9496C16.9681 9.12118 16.9264 7.2024 16.3285 5.49219Z" fill="#191825" fill-opacity="0.5"/>
<path d="M10.2802 7.43232L10.5027 8.39866L10.0995 13.0566L10.5931 12.8967L12.491 6.79273L15.3414 5.97933C15.7029 5.86115 16.0713 5.65259 16.3216 5.48574C16.2312 5.23546 16.1339 4.99214 16.0227 4.74881C15.7307 4.74881 15.3553 4.76272 15.0216 4.8531L12.1782 5.66649L7.34645 1.48828L6.8459 1.61342L9.64759 5.3606L9.97434 6.29218L7.28388 7.06386L0.477783 9.42757C0.498639 9.56662 0.526448 9.71261 0.554256 9.85165L7.61063 8.1901L10.2802 7.43232Z" fill="white"/>
</svg>
