<svg width="25" height="25" viewBox="0 0 25 25" fill="none" xmlns="http://www.w3.org/2000/svg">
<path d="M12.4688 2.51953C6.94875 2.51953 2.46875 6.99953 2.46875 12.5195C2.46875 18.0395 6.94875 22.5195 12.4688 22.5195C17.9888 22.5195 22.4688 18.0395 22.4688 12.5195C22.4688 6.99953 17.9988 2.51953 12.4688 2.51953ZM15.4688 14.7495L12.5687 16.4195C12.2087 16.6295 11.8088 16.7295 11.4187 16.7295C11.0188 16.7295 10.6287 16.6295 10.2688 16.4195C9.54875 15.9995 9.11875 15.2595 9.11875 14.4195V11.0695C9.11875 10.2395 9.54875 9.48953 10.2688 9.06953C10.9888 8.64953 11.8487 8.64953 12.5787 9.06953L15.4787 10.7395C16.1987 11.1595 16.6287 11.8995 16.6287 12.7395C16.6287 13.5795 16.1987 14.3295 15.4688 14.7495Z" fill="#5D50C6"/>
</svg>
